<svg id="Ebene_1" data-name="Ebene 1" xmlns="http://www.w3.org/2000/svg" viewBox="0 0 171.97 45.78"><defs><style>.cls-1{font-size:36px;font-family:gpkn;letter-spacing:-0.18em;}.cls-2{fill:red;}</style></defs><title>logo</title><text class="cls-1" transform="translate(0 30.57)">d mn b</text><path class="cls-2" d="M150.58,125.08a4.78,4.78,0,0,1-4.78-4.78v0h2v0a2.8,2.8,0,0,0,5.53.63h2a4.78,4.78,0,0,1-4.74,4.15Zm-4.71-5.55a4.78,4.78,0,0,1,9.27-.67H153a2.62,2.62,0,0,0-2.4-1.36,2.81,2.81,0,0,0-2.69,2Z" transform="translate(-52.42 -84.19)"/><path class="cls-2" d="M159.8,125.08A4.78,4.78,0,0,1,155,120.3a4.77,4.77,0,1,1,4.78,4.78Zm2-2.79a2.8,2.8,0,0,0-2-4.79,2.8,2.8,0,1,0,2,4.79Z" transform="translate(-52.42 -84.19)"/><path class="cls-2" d="M172.42,116.68a4.6,4.6,0,0,1,1.6,2.86,7.7,7.7,0,0,1,.07,1.28V125h-2v-4.15a5.79,5.79,0,0,0-.08-1.08,2.8,2.8,0,0,0-5.48,0,3.63,3.63,0,0,0-.07.71V125h-2v-4.54a5.44,5.44,0,0,1,0-.76,4.77,4.77,0,0,1,7.85-3Z" transform="translate(-52.42 -84.19)"/><path class="cls-2" d="M181,116.15a2.9,2.9,0,0,1,1.41,1.58,3.67,3.67,0,0,1,.12,1.09h-2.07a1.21,1.21,0,0,0-.61-1.13,3,3,0,0,0-1.4-.25,3.17,3.17,0,0,0-1.5.3.84.84,0,0,0-.53.72c0,.38.33.65,1,.81l2.17.33a5.61,5.61,0,0,1,2.17.67,2.09,2.09,0,0,1,1,1.88,2.47,2.47,0,0,1-1.28,2.07,5.38,5.38,0,0,1-3.07.86,5.48,5.48,0,0,1-2.89-.74,2.74,2.74,0,0,1-1.43-1.81,6,6,0,0,1,0-.75h2.11c0,.92.75,1.39,2.17,1.39a3.9,3.9,0,0,0,1.62-.31c.44-.2.65-.44.65-.72,0-.44-.32-.73-1-.87l-2.14-.24a4.94,4.94,0,0,1-2.14-.6,2.16,2.16,0,0,1-1-2,2.5,2.5,0,0,1,1.12-2.08,4.68,4.68,0,0,1,2.91-.86A5.25,5.25,0,0,1,181,116.15Z" transform="translate(-52.42 -84.19)"/><path class="cls-2" d="M187.49,125.08a4.79,4.79,0,0,1-4.75-4.17c0-.2,0-.45,0-.76v-4.36h2v4.34a3.73,3.73,0,0,0,.07.72,2.8,2.8,0,0,0,2.74,2.25,2.67,2.67,0,0,0,1.77-.65,2.73,2.73,0,0,0,1-1.6,6,6,0,0,0,.08-1.09v-4h2v4a9.22,9.22,0,0,1-.06,1.28,4.78,4.78,0,0,1-4.71,4Z" transform="translate(-52.42 -84.19)"/><path class="cls-2" d="M194.45,111.27V125h-2V111.27Z" transform="translate(-52.42 -84.19)"/><path class="cls-2" d="M200.16,125.08a4.8,4.8,0,0,1-4.77-4.74V117.1h-1v-1.31h1V110.9h2v4.89h2.52v1.31h-2.52v3.17h0v0a2.73,2.73,0,0,0,.81,2,2.7,2.7,0,0,0,2,.82Z" transform="translate(-52.42 -84.19)"/><path class="cls-2" d="M201.94,111.58a1,1,0,0,1,.32.76,1.09,1.09,0,0,1-1.08,1.06,1,1,0,0,1-.74-.32,1,1,0,0,1-.32-.74,1,1,0,0,1,.32-.76,1,1,0,0,1,.74-.31A1,1,0,0,1,201.94,111.58Zm.23,4.21V125h-2v-9.2Z" transform="translate(-52.42 -84.19)"/><path class="cls-2" d="M210.37,116.68a4.6,4.6,0,0,1,1.6,2.86,9.42,9.42,0,0,1,.06,1.28V125h-2v-4.15a6,6,0,0,0-.07-1.08,2.8,2.8,0,0,0-5.48,0,3.63,3.63,0,0,0-.07.71V125h-2v-4.54a5.44,5.44,0,0,1,0-.76,4.77,4.77,0,0,1,7.85-3Z" transform="translate(-52.42 -84.19)"/><path class="cls-2" d="M219.89,116.67a4.67,4.67,0,0,1,1.6,2.86h-2a2.66,2.66,0,0,0-1-1.44,2.77,2.77,0,0,0-3.66.24,2.79,2.79,0,0,0,0,4,2.83,2.83,0,0,0,4.34-.43,2.93,2.93,0,0,0,.45-1.67h2v5a4.78,4.78,0,0,1-9.56,0v-.08h2v.08a2.66,2.66,0,0,0,.82,2,2.71,2.71,0,0,0,2,.83,2.75,2.75,0,0,0,1.93-.77,2.69,2.69,0,0,0,.86-1.89l0-.22v-1a4.79,4.79,0,0,1-7.6-3.87,4.8,4.8,0,0,1,4.79-4.78A4.65,4.65,0,0,1,219.89,116.67Z" transform="translate(-52.42 -84.19)"/><line class="cls-2" y1="31.83" x2="171.97" y2="30.57"/></svg>